<svg xmlns="http://www.w3.org/2000/svg" viewBox="0 0 262.46 144.4"><defs><style>.cls-1{fill:#d54d6f;}</style></defs><g id="Layer_2" data-name="Layer 2"><g id="Layer_1-2" data-name="Layer 1"><polygon class="cls-1" points="167.07 143.36 123.95 143.25 93.72 90.77 83.9 73.72 73.18 92.16 43.61 143.04 0 142.93 51.43 54.42 62.15 35.97 83.05 0 104.99 37.42 114.78 54.14 167.07 143.36"/><path class="cls-1" d="M261.33,11.23,246.42,40.87a38.31,38.31,0,0,0-55.76,17L172.05,26.14a71.45,71.45,0,0,1,89.28-14.91Z"/><path d="M262.46,134.35a71.52,71.52,0,0,1-14.76,6.72c-.7.22-1.36.42-2,.61a74.89,74.89,0,0,1-8.65,1.87,76.88,76.88,0,0,1-23.24-.06l-.24,0-.33-.06c-1.12-.19-2.25-.43-3.38-.68h0l-.42-.1h0c-1.15-.28-2.31-.58-3.47-.92l-.32-.09a61.48,61.48,0,0,1-35.42-28L156.52,90.31l-9.77-16.68-4.62,8.82-22-37.56L125,36.47h0L144.88,1.83l20,34.1.85,1.46L187.52,74.6l14.26,24.34a0,0,0,0,1,0,0c.29.45,4.69,7.29,9,9.36a4.66,4.66,0,0,0,.66.28c1.19.48,2.44.91,3.7,1.28a38.22,38.22,0,0,0,31.31-4.51Z"/><polygon points="102.58 143.19 63.63 143.1 83.06 109.31 102.58 143.19"/></g></g></svg>