<svg xmlns="http://www.w3.org/2000/svg" viewBox="0 0 268.39 180.02"><defs><style>.cls-1{fill:#d54d6f;}.cls-2{fill:#fff;}</style></defs><g id="Layer_2" data-name="Layer 2"><g id="Layer_1-2" data-name="Layer 1"><path class="cls-1" d="M19.25,179.36H14.14L13,176.15H6.33l-1.25,3.21H0L7.09,161h5.19Zm-7.6-6.86-2-5.85-2,5.85Z"/><path class="cls-1" d="M34.15,173.27a7.5,7.5,0,0,1-.46,2.7,5.55,5.55,0,0,1-1.37,2.08,6.13,6.13,0,0,1-2.24,1.32,9.49,9.49,0,0,1-3.12.46,10.92,10.92,0,0,1-6.41-2.08l2.05-3.86a6.51,6.51,0,0,0,4.21,1.93,2.89,2.89,0,0,0,1.68-.46,1.5,1.5,0,0,0,.67-1.32,1.44,1.44,0,0,0-.62-1.22,8.61,8.61,0,0,0-2.31-.95c-.71-.2-1.26-.36-1.65-.49s-.68-.24-.89-.33a1.53,1.53,0,0,1-.47-.28l-.46-.39a4.43,4.43,0,0,1-1.45-3.65,6.68,6.68,0,0,1,.47-2.54,6,6,0,0,1,1.31-2,5.74,5.74,0,0,1,2-1.28,6.79,6.79,0,0,1,2.51-.45A12.55,12.55,0,0,1,33.42,162l-1.93,3.71a5.16,5.16,0,0,0-3.15-1.22,2.56,2.56,0,0,0-1.42.42,1.29,1.29,0,0,0-.65,1.16,1.82,1.82,0,0,0,.07.56,1,1,0,0,0,.42.48,4.76,4.76,0,0,0,1,.49c.45.17,1.05.36,1.83.58a7.54,7.54,0,0,1,3.49,1.91A4.73,4.73,0,0,1,34.15,173.27Z"/><path class="cls-1" d="M55.58,169.15a14.62,14.62,0,0,1-.7,4.79,9.31,9.31,0,0,1-1.94,3.37,7.59,7.59,0,0,1-3,2,11.67,11.67,0,0,1-7.82-.07,9,9,0,0,1-3.1-2,8.79,8.79,0,0,1-2-3.06,10.36,10.36,0,0,1-.71-3.92,10.92,10.92,0,0,1,.71-4,9,9,0,0,1,5.17-5.18,11.25,11.25,0,0,1,4.13-.73,9.37,9.37,0,0,1,4.85,1.22,9.1,9.1,0,0,1,3.43,4l-4.54,1.87a5,5,0,0,0-1.68-2.24,4,4,0,0,0-2.3-.64,4.4,4.4,0,0,0-1.84.39A4.84,4.84,0,0,0,42.73,166a5.06,5.06,0,0,0-1,1.78,6.94,6.94,0,0,0-.39,2.42,6.86,6.86,0,0,0,.33,2.12,5.58,5.58,0,0,0,1,1.81,4.85,4.85,0,0,0,1.54,1.26,4.56,4.56,0,0,0,2.14.48,4.25,4.25,0,0,0,2.51-.71,3.63,3.63,0,0,0,1.29-2.43H46.1v-3.62Z"/><path class="cls-1" d="M89.56,179.36H84.78l-1.37-10.6L79,179.36h-1.9l-4.24-10.6-1.54,10.6H66.5L69.65,161h4.72l3.71,9.82L82,161h4.78Z"/><path class="cls-1" d="M97.4,179.36H92.62V161H97.4Z"/><path class="cls-1" d="M114.49,178.91a12.56,12.56,0,0,1-4.33,1,9.73,9.73,0,0,1-6.9-2.84,9.86,9.86,0,0,1-2.08-3.07,9.4,9.4,0,0,1-.76-3.74,9.23,9.23,0,0,1,.76-3.74,9.54,9.54,0,0,1,2.08-3.06,10.11,10.11,0,0,1,3.1-2.08,9.6,9.6,0,0,1,3.83-.77,11.29,11.29,0,0,1,4.3.92v5.73a5.15,5.15,0,0,0-4.12-2,5.22,5.22,0,0,0-2,.37,4.57,4.57,0,0,0-2.59,2.63,5.22,5.22,0,0,0-.37,2,5.16,5.16,0,0,0,.37,2,4.68,4.68,0,0,0,1,1.57,4.78,4.78,0,0,0,1.57,1,5.08,5.08,0,0,0,2,.37,5.66,5.66,0,0,0,2.2-.45,4.79,4.79,0,0,0,1.93-1.57v5.74Z"/><path class="cls-1" d="M132.81,179.36h-5.94l-4.57-7.06v7.06h-4.78V161H125a7.12,7.12,0,0,1,2.58.43,5.55,5.55,0,0,1,1.91,1.2,5.14,5.14,0,0,1,1.19,1.81,6.09,6.09,0,0,1,.4,2.23,5.61,5.61,0,0,1-1,3.34,5,5,0,0,1-3,1.85Zm-6.74-12.47a2.25,2.25,0,0,0-.65-1.6,3,3,0,0,0-2.23-.68h-.89v4.6h.89a3,3,0,0,0,2.24-.68A2.3,2.3,0,0,0,126.07,166.89Z"/><path class="cls-1" d="M154.36,170.22a9.86,9.86,0,0,1-.74,3.8,9.5,9.5,0,0,1-5.3,5.23,11.49,11.49,0,0,1-8.27,0,9.79,9.79,0,0,1-3.22-2.11,9.36,9.36,0,0,1-2.09-3.12,10.15,10.15,0,0,1,0-7.66,9.25,9.25,0,0,1,2.12-3.1,10.07,10.07,0,0,1,3.24-2.08,11.34,11.34,0,0,1,8.19,0,9.79,9.79,0,0,1,3.22,2.11,9.36,9.36,0,0,1,2.09,3.12A9.82,9.82,0,0,1,154.36,170.22Zm-5,0a5,5,0,0,0-.43-2.08,5,5,0,0,0-1.16-1.63,5.35,5.35,0,0,0-1.68-1.07,5.11,5.11,0,0,0-2-.39,5.05,5.05,0,0,0-2,.39,5.18,5.18,0,0,0-2.79,2.73,4.86,4.86,0,0,0-.43,2.05,4.74,4.74,0,0,0,.42,2,5.84,5.84,0,0,0,1.11,1.65,5.21,5.21,0,0,0,1.65,1.13,4.94,4.94,0,0,0,2,.42,5.13,5.13,0,0,0,2-.4,5.27,5.27,0,0,0,2.79-2.73A5.13,5.13,0,0,0,149.4,170.22Z"/><path class="cls-1" d="M179.35,178.91a12.56,12.56,0,0,1-4.33,1,9.73,9.73,0,0,1-6.9-2.84A9.86,9.86,0,0,1,166,174a9.4,9.4,0,0,1-.76-3.74,9.23,9.23,0,0,1,.76-3.74,9.54,9.54,0,0,1,2.08-3.06,10.23,10.23,0,0,1,3.1-2.08,9.6,9.6,0,0,1,3.83-.77,11.29,11.29,0,0,1,4.3.92v5.73a5.15,5.15,0,0,0-4.12-2,5.22,5.22,0,0,0-2,.37,4.57,4.57,0,0,0-2.59,2.63,5.22,5.22,0,0,0-.37,2,5.16,5.16,0,0,0,.37,2,4.68,4.68,0,0,0,1,1.57,4.78,4.78,0,0,0,1.57,1,5.08,5.08,0,0,0,2,.37,5.66,5.66,0,0,0,2.2-.45,4.85,4.85,0,0,0,1.93-1.57v5.74Z"/><path class="cls-1" d="M201.9,170.22a9.86,9.86,0,0,1-.74,3.8,9.5,9.5,0,0,1-5.3,5.23,11.49,11.49,0,0,1-8.27,0,9.79,9.79,0,0,1-3.22-2.11,9.36,9.36,0,0,1-2.09-3.12,9.86,9.86,0,0,1-.74-3.8,9.67,9.67,0,0,1,.76-3.86,9.25,9.25,0,0,1,2.12-3.1,10.07,10.07,0,0,1,3.24-2.08,11.34,11.34,0,0,1,8.19,0,9.79,9.79,0,0,1,3.22,2.11,9.36,9.36,0,0,1,2.09,3.12A9.64,9.64,0,0,1,201.9,170.22Zm-5,0a5,5,0,0,0-.43-2.08,5,5,0,0,0-1.16-1.63,5.35,5.35,0,0,0-1.68-1.07,5.11,5.11,0,0,0-2-.39,5.05,5.05,0,0,0-2,.39,5.36,5.36,0,0,0-1.65,1.08,5.18,5.18,0,0,0-1.14,1.65,4.86,4.86,0,0,0-.43,2.05,4.74,4.74,0,0,0,.42,2,5.84,5.84,0,0,0,1.11,1.65,5.21,5.21,0,0,0,1.65,1.13,4.94,4.94,0,0,0,2,.42,5.13,5.13,0,0,0,2-.4,5.27,5.27,0,0,0,2.79-2.73A5.13,5.13,0,0,0,197,170.22Z"/><path class="cls-1" d="M221,171.58a17.65,17.65,0,0,1-.1,1.88,6.93,6.93,0,0,1-.36,1.57,5.61,5.61,0,0,1-.7,1.38,7.94,7.94,0,0,1-7.1,3.42q-3.94,0-5.88-2c-1.29-1.33-1.93-3.41-1.93-6.26V161h4.78v10q0,.94.06,1.65a5.16,5.16,0,0,0,.24,1.23,2.3,2.3,0,0,0,.52.89,3.67,3.67,0,0,0,1.66.87,3.53,3.53,0,0,0,.7.07,4.45,4.45,0,0,0,1.35-.19,2.24,2.24,0,0,0,1.05-.7,3.42,3.42,0,0,0,.68-1.42,9.76,9.76,0,0,0,.24-2.4V161H221v10.62Z"/><path class="cls-1" d="M240.13,179.36h-5.94l-4.57-7.06v7.06h-4.78V161h7.45a7.12,7.12,0,0,1,2.58.43,5.55,5.55,0,0,1,1.91,1.2A5.14,5.14,0,0,1,238,164.4a6.09,6.09,0,0,1,.4,2.23,5.61,5.61,0,0,1-1,3.34,5,5,0,0,1-3,1.85Zm-6.73-12.47a2.25,2.25,0,0,0-.65-1.6,3,3,0,0,0-2.23-.68h-.89v4.6h.89a3,3,0,0,0,2.24-.68A2.35,2.35,0,0,0,233.4,166.89Z"/><path class="cls-1" d="M254.91,173.27a7.5,7.5,0,0,1-.46,2.7,5.55,5.55,0,0,1-1.37,2.08,6.13,6.13,0,0,1-2.24,1.32,9.49,9.49,0,0,1-3.12.46,10.92,10.92,0,0,1-6.41-2.08l2.05-3.86a6.51,6.51,0,0,0,4.21,1.93,2.89,2.89,0,0,0,1.68-.46,1.5,1.5,0,0,0,.67-1.32,1.44,1.44,0,0,0-.62-1.22,8.76,8.76,0,0,0-2.31-.95c-.71-.2-1.26-.36-1.65-.49s-.68-.24-.89-.33a1.53,1.53,0,0,1-.47-.28l-.46-.39a4.44,4.44,0,0,1-1.46-3.65,6.5,6.5,0,0,1,.48-2.54,6,6,0,0,1,1.31-2,5.74,5.74,0,0,1,2-1.28,6.79,6.79,0,0,1,2.51-.45,12.55,12.55,0,0,1,5.85,1.51l-1.93,3.71a5.16,5.16,0,0,0-3.15-1.22,2.56,2.56,0,0,0-1.42.42,1.29,1.29,0,0,0-.65,1.16,1.82,1.82,0,0,0,.07.56,1,1,0,0,0,.42.48,4.76,4.76,0,0,0,1,.49c.45.17,1.05.36,1.83.58a7.54,7.54,0,0,1,3.49,1.91A4.73,4.73,0,0,1,254.91,173.27Z"/><path class="cls-1" d="M268.39,179.36H257.91V161h10.48v4h-5.7v3.12h5.37v4h-5.37v3.27h5.7Z"/><polygon class="cls-1" points="170.04 143.36 126.92 143.25 96.69 90.77 86.87 73.72 76.15 92.16 46.58 143.04 2.97 142.93 54.4 54.42 65.12 35.97 86.02 0 107.96 37.42 117.75 54.14 170.04 143.36"/><path class="cls-1" d="M264.3,11.23,249.39,40.87a38.31,38.31,0,0,0-55.76,17L175,26.14A71.45,71.45,0,0,1,264.3,11.23Z"/><path class="cls-2" d="M265.43,134.35a71.52,71.52,0,0,1-14.76,6.72c-.7.22-1.36.42-2,.61a74.89,74.89,0,0,1-8.65,1.87,76.88,76.88,0,0,1-23.24-.06l-.24,0-.33-.06c-1.12-.19-2.25-.43-3.38-.68h0l-.42-.1h0c-1.15-.28-2.31-.58-3.47-.92l-.32-.09a61.48,61.48,0,0,1-35.42-28L159.49,90.31l-9.77-16.68-4.62,8.82-22-37.56,4.86-8.42h0L147.85,1.83l20,34.1.85,1.46L190.49,74.6l14.26,24.34a0,0,0,0,1,0,0c.29.45,4.69,7.29,9,9.36a4.66,4.66,0,0,0,.66.28c1.19.48,2.44.91,3.7,1.28a38.22,38.22,0,0,0,31.31-4.51Z"/><polygon class="cls-2" points="105.55 143.19 66.6 143.1 86.03 109.31 105.55 143.19"/></g></g></svg>